<svg width="169" height="40" viewBox="0 0 169 40" fill="none" xmlns="http://www.w3.org/2000/svg">
<path d="M7.07943 5.42125V39.2186H0V5.42125H7.07943Z" fill="#171717"/>
<path d="M22.4878 12.5519C26.0837 12.5519 29.1659 13.5938 31.7344 15.6777L29.1338 19.6337C26.9827 18.2662 24.8637 17.5824 22.7768 17.5824C21.6531 17.5824 20.7862 17.7941 20.1762 18.2173C19.5661 18.6406 19.2611 19.2104 19.2611 19.9267C19.2611 20.4477 19.3896 20.8873 19.6464 21.2454C19.9354 21.6036 20.4491 21.9455 21.1875 22.2711C21.9581 22.5967 23.0978 22.9874 24.6068 23.4432C27.3038 24.1921 29.3104 25.2015 30.6268 26.4713C31.9431 27.7086 32.6013 29.418 32.6013 31.5995C32.6013 33.3252 32.1036 34.823 31.1083 36.0928C30.1452 37.3626 28.8288 38.3394 27.1593 39.0232C25.4898 39.6744 23.6276 40 21.5728 40C19.4217 40 17.4632 39.6744 15.6973 39.0232C13.9315 38.3394 12.4225 37.4115 11.1704 36.2393L14.5415 32.4298C16.6926 34.1229 18.9722 34.9695 21.3801 34.9695C22.6644 34.9695 23.6757 34.7253 24.4142 34.2369C25.1847 33.7159 25.57 33.0159 25.57 32.1368C25.57 31.453 25.4255 30.9158 25.1366 30.525C24.8476 30.1343 24.3179 29.7762 23.5473 29.4506C22.7768 29.0924 21.5728 28.6854 19.9354 28.2295C17.3669 27.5132 15.4565 26.5039 14.2044 25.2015C12.9844 23.8665 12.3743 22.2222 12.3743 20.2686C12.3743 18.8034 12.7917 17.4847 13.6265 16.3126C14.4612 15.1404 15.6331 14.2287 17.1421 13.5775C18.6832 12.8938 20.4651 12.5519 22.4878 12.5519Z" fill="#171717"/>
<path d="M64.6521 12.5519C66.6748 12.5519 68.2962 13.2519 69.5162 14.652C70.7684 16.0521 71.3945 17.9569 71.3945 20.3663V39.2186H64.5558V21.5385C64.5558 18.9988 63.7211 17.7289 62.0515 17.7289C61.1526 17.7289 60.3659 18.022 59.6917 18.6081C59.0175 19.1941 58.3272 20.1058 57.6209 21.3431V39.2186H50.7822V21.5385C50.7822 18.9988 49.9475 17.7289 48.2779 17.7289C47.379 17.7289 46.5924 18.0383 45.9181 18.6569C45.2439 19.243 44.5697 20.1384 43.8954 21.3431V39.2186H37.0568V13.3333H42.9804L43.5102 16.5568C44.4733 15.2544 45.5489 14.2613 46.7368 13.5775C47.9569 12.8938 49.3535 12.5519 50.9267 12.5519C52.3715 12.5519 53.6236 12.9263 54.6831 13.6752C55.7426 14.3915 56.5132 15.4172 56.9948 16.7521C58.0543 15.3521 59.1941 14.3101 60.4141 13.6264C61.6663 12.9101 63.0789 12.5519 64.6521 12.5519Z" fill="#171717"/>
<path d="M99.4548 25.6899C99.4548 26.0155 99.4067 26.9109 99.3104 28.3761H83.3696C83.5943 30.7204 84.2204 32.381 85.2478 33.3578C86.2752 34.3346 87.6718 34.823 89.4377 34.823C90.5293 34.823 91.5567 34.6439 92.5199 34.2857C93.4831 33.9276 94.5265 33.3578 95.6502 32.5763L98.4917 36.4835C95.6342 38.8278 92.4075 40 88.8116 40C84.7983 40 81.7161 38.779 79.565 36.337C77.4139 33.895 76.3383 30.5902 76.3383 26.4225C76.3383 23.7851 76.7878 21.4245 77.6868 19.3407C78.6179 17.2243 79.9503 15.5637 81.684 14.359C83.4499 13.1543 85.5368 12.5519 87.9447 12.5519C91.5727 12.5519 94.3981 13.7078 96.4208 16.0195C98.4435 18.3313 99.4548 21.5547 99.4548 25.6899ZM92.6644 23.7363C92.6644 19.4383 91.1393 17.2894 88.0892 17.2894C86.6765 17.2894 85.5689 17.8266 84.7662 18.9011C83.9957 19.943 83.5301 21.6524 83.3696 24.0293H92.6644V23.7363Z" fill="#171717"/>
<path d="M118.66 12.5519C120.907 12.5519 122.657 13.2519 123.909 14.652C125.161 16.0195 125.788 17.9243 125.788 20.3663V39.2186H118.949V21.5385C118.949 20.1384 118.708 19.1616 118.226 18.6081C117.777 18.022 117.087 17.7289 116.156 17.7289C115.192 17.7289 114.31 18.0383 113.507 18.6569C112.736 19.243 111.982 20.1384 111.243 21.3431V39.2186H104.405V13.3333H110.328L110.858 16.6056C111.918 15.2707 113.073 14.2613 114.326 13.5775C115.61 12.8938 117.055 12.5519 118.66 12.5519Z" fill="#171717"/>
<path d="M139.133 13.3333V39.2186H132.294V13.3333H139.133ZM135.665 0C136.885 0 137.88 0.39072 138.651 1.17216C139.454 1.92104 139.855 2.88156 139.855 4.05372C139.855 5.22589 139.454 6.20269 138.651 6.98413C137.88 7.73301 136.885 8.10745 135.665 8.10745C134.445 8.10745 133.45 7.73301 132.679 6.98413C131.909 6.20269 131.523 5.22589 131.523 4.05372C131.523 2.88156 131.909 1.92104 132.679 1.17216C133.45 0.39072 134.445 0 135.665 0Z" fill="#171717"/>
<path d="M156.625 12.5519C160.446 12.5519 163.432 13.7729 165.583 16.2149C167.734 18.6243 168.81 21.978 168.81 26.2759C168.81 29.011 168.312 31.4204 167.317 33.5043C166.354 35.5556 164.941 37.151 163.079 38.2906C161.249 39.4302 159.081 40 156.577 40C152.757 40 149.755 38.7953 147.571 36.3858C145.42 33.9438 144.345 30.5739 144.345 26.2759C144.345 23.5409 144.826 21.1477 145.789 19.0965C146.785 17.0126 148.197 15.4009 150.027 14.2613C151.89 13.1217 154.089 12.5519 156.625 12.5519ZM156.625 17.7289C154.892 17.7289 153.591 18.429 152.724 19.8291C151.89 21.1966 151.472 23.3455 151.472 26.2759C151.472 29.2064 151.89 31.3716 152.724 32.7717C153.591 34.1392 154.876 34.823 156.577 34.823C158.279 34.823 159.547 34.1392 160.382 32.7717C161.249 31.3716 161.682 29.2064 161.682 26.2759C161.682 23.3455 161.265 21.1966 160.43 19.8291C159.595 18.429 158.327 17.7289 156.625 17.7289Z" fill="#171717"/>
</svg>
